<svg width="25" height="24" viewBox="0 0 25 24" fill="none" xmlns="http://www.w3.org/2000/svg">
<path d="M19.0417 20.25C20.4915 20.25 21.6667 19.0747 21.6667 17.625C21.6667 16.1753 20.4915 15 19.0417 15C17.592 15 16.4167 16.1753 16.4167 17.625C16.4167 19.0747 17.592 20.25 19.0417 20.25Z" stroke="#C22703" stroke-width="1.5" stroke-linecap="round" stroke-linejoin="round"/>
<path d="M19.0419 15L19.0417 11.2389C19.0417 10.0454 18.5676 8.90093 17.7237 8.05706L14.1666 4.5" stroke="#C22703" stroke-width="1.5" stroke-linecap="round" stroke-linejoin="round"/>
<path d="M14.1666 8.25V4.5H17.9166" stroke="#C22703" stroke-width="1.5" stroke-linecap="round" stroke-linejoin="round"/>
<path d="M6.29163 9C7.74137 9 8.91663 7.82475 8.91663 6.375C8.91663 4.92525 7.74137 3.75 6.29163 3.75C4.84188 3.75 3.66663 4.92525 3.66663 6.375C3.66663 7.82475 4.84188 9 6.29163 9Z" stroke="#C22703" stroke-width="1.5" stroke-linecap="round" stroke-linejoin="round"/>
<path d="M6.29163 9L6.29178 12.7611C6.29183 13.9546 6.76593 15.0991 7.6098 15.9429L11.1669 19.5" stroke="#C22703" stroke-width="1.5" stroke-linecap="round" stroke-linejoin="round"/>
<path d="M11.1667 15.75V19.5H7.41675" stroke="#C22703" stroke-width="1.5" stroke-linecap="round" stroke-linejoin="round"/>
</svg>
