<svg width="25" height="24" viewBox="0 0 25 24" fill="none" xmlns="http://www.w3.org/2000/svg">
<path d="M14.7768 17.6097C14.5868 17.6097 14.3968 17.5398 14.2468 17.3898C13.9568 17.0998 13.9568 16.6197 14.2468 16.3297L17.2868 13.2898C17.5768 12.9998 18.0568 12.9998 18.3468 13.2898C18.6368 13.5798 18.6368 14.0598 18.3468 14.3498L15.3068 17.3898C15.1668 17.5298 14.9768 17.6097 14.7768 17.6097Z" fill="#292D32"/>
<path d="M17.8168 14.5703H7.50684C7.09684 14.5703 6.75684 14.2303 6.75684 13.8203C6.75684 13.4103 7.09684 13.0703 7.50684 13.0703H17.8168C18.2268 13.0703 18.5668 13.4103 18.5668 13.8203C18.5668 14.2303 18.2368 14.5703 17.8168 14.5703Z" fill="#292D32"/>
<path d="M7.51703 10.9301C7.32703 10.9301 7.13703 10.8601 6.98703 10.7101C6.69703 10.4201 6.69703 9.94009 6.98703 9.65009L10.027 6.61008C10.317 6.32008 10.797 6.32008 11.087 6.61008C11.377 6.90008 11.377 7.38011 11.087 7.67011L8.04703 10.7101C7.89703 10.8601 7.70703 10.9301 7.51703 10.9301Z" fill="#292D32"/>
<path d="M17.8168 10.9297H7.50684C7.09684 10.9297 6.75684 10.5897 6.75684 10.1797C6.75684 9.76969 7.09684 9.42969 7.50684 9.42969H17.8168C18.2268 9.42969 18.5668 9.76969 18.5668 10.1797C18.5668 10.5897 18.2368 10.9297 17.8168 10.9297Z" fill="#292D32"/>
<path d="M12.667 22.75C6.73699 22.75 1.91699 17.93 1.91699 12C1.91699 6.07 6.73699 1.25 12.667 1.25C18.597 1.25 23.417 6.07 23.417 12C23.417 17.93 18.597 22.75 12.667 22.75ZM12.667 2.75C7.56699 2.75 3.41699 6.9 3.41699 12C3.41699 17.1 7.56699 21.25 12.667 21.25C17.767 21.25 21.917 17.1 21.917 12C21.917 6.9 17.767 2.75 12.667 2.75Z" fill="#292D32"/>
</svg>
