<svg width="24" height="24" viewBox="0 0 24 24" fill="none" xmlns="http://www.w3.org/2000/svg">
<path d="M9.375 6.55704C9.14294 6.55704 8.92038 6.63896 8.75628 6.78478C8.59219 6.9306 8.5 7.12838 8.5 7.3346C8.5 7.54083 8.59219 7.7386 8.75628 7.88443C8.92038 8.03025 9.14294 8.11217 9.375 8.11217C9.60706 8.11217 9.82962 8.03025 9.99372 7.88443C10.1578 7.7386 10.25 7.54083 10.25 7.3346C10.25 7.12838 10.1578 6.9306 9.99372 6.78478C9.82962 6.63896 9.60706 6.55704 9.375 6.55704ZM6.89875 6.55704C7.07953 6.10175 7.41477 5.7075 7.85827 5.42863C8.30178 5.14976 8.8317 5 9.375 5C9.9183 5 10.4482 5.14976 10.8917 5.42863C11.3352 5.7075 11.6705 6.10175 11.8512 6.55704H18.125C18.3571 6.55704 18.5796 6.63896 18.7437 6.78478C18.9078 6.9306 19 7.12838 19 7.3346C19 7.54083 18.9078 7.7386 18.7437 7.88443C18.5796 8.03025 18.3571 8.11217 18.125 8.11217H11.8512C11.6705 8.56746 11.3352 8.96171 10.8917 9.24058C10.4482 9.51945 9.9183 9.66921 9.375 9.66921C8.8317 9.66921 8.30178 9.51945 7.85827 9.24058C7.41477 8.96171 7.07953 8.56746 6.89875 8.11217H5.875C5.64294 8.11217 5.42038 8.03025 5.25628 7.88443C5.09219 7.7386 5 7.54083 5 7.3346C5 7.12838 5.09219 6.9306 5.25628 6.78478C5.42038 6.63896 5.64294 6.55704 5.875 6.55704H6.89875ZM14.625 11.2224C14.3929 11.2224 14.1704 11.3044 14.0063 11.4502C13.8422 11.596 13.75 11.7938 13.75 12C13.75 12.2062 13.8422 12.404 14.0063 12.5498C14.1704 12.6956 14.3929 12.7776 14.625 12.7776C14.8571 12.7776 15.0796 12.6956 15.2437 12.5498C15.4078 12.404 15.5 12.2062 15.5 12C15.5 11.7938 15.4078 11.596 15.2437 11.4502C15.0796 11.3044 14.8571 11.2224 14.625 11.2224ZM12.1487 11.2224C12.3295 10.7671 12.6648 10.3729 13.1083 10.094C13.5518 9.81515 14.0817 9.6654 14.625 9.6654C15.1683 9.6654 15.6982 9.81515 16.1417 10.094C16.5852 10.3729 16.9205 10.7671 17.1012 11.2224H18.125C18.3571 11.2224 18.5796 11.3044 18.7437 11.4502C18.9078 11.596 19 11.7938 19 12C19 12.2062 18.9078 12.404 18.7437 12.5498C18.5796 12.6956 18.3571 12.7776 18.125 12.7776H17.1012C16.9205 13.2329 16.5852 13.6271 16.1417 13.906C15.6982 14.1848 15.1683 14.3346 14.625 14.3346C14.0817 14.3346 13.5518 14.1848 13.1083 13.906C12.6648 13.6271 12.3295 13.2329 12.1487 12.7776H5.875C5.64294 12.7776 5.42038 12.6956 5.25628 12.5498C5.09219 12.404 5 12.2062 5 12C5 11.7938 5.09219 11.596 5.25628 11.4502C5.42038 11.3044 5.64294 11.2224 5.875 11.2224H12.1487ZM9.375 15.8878C9.14294 15.8878 8.92038 15.9698 8.75628 16.1156C8.59219 16.2614 8.5 16.4592 8.5 16.6654C8.5 16.8716 8.59219 17.0694 8.75628 17.2152C8.92038 17.361 9.14294 17.443 9.375 17.443C9.60706 17.443 9.82962 17.361 9.99372 17.2152C10.1578 17.0694 10.25 16.8716 10.25 16.6654C10.25 16.4592 10.1578 16.2614 9.99372 16.1156C9.82962 15.9698 9.60706 15.8878 9.375 15.8878ZM6.89875 15.8878C7.07953 15.4325 7.41477 15.0383 7.85827 14.7594C8.30178 14.4805 8.8317 14.3308 9.375 14.3308C9.9183 14.3308 10.4482 14.4805 10.8917 14.7594C11.3352 15.0383 11.6705 15.4325 11.8512 15.8878H18.125C18.3571 15.8878 18.5796 15.9698 18.7437 16.1156C18.9078 16.2614 19 16.4592 19 16.6654C19 16.8716 18.9078 17.0694 18.7437 17.2152C18.5796 17.361 18.3571 17.443 18.125 17.443H11.8512C11.6705 17.8983 11.3352 18.2925 10.8917 18.5714C10.4482 18.8502 9.9183 19 9.375 19C8.8317 19 8.30178 18.8502 7.85827 18.5714C7.41477 18.2925 7.07953 17.8983 6.89875 17.443H5.875C5.64294 17.443 5.42038 17.361 5.25628 17.2152C5.09219 17.0694 5 16.8716 5 16.6654C5 16.4592 5.09219 16.2614 5.25628 16.1156C5.42038 15.9698 5.64294 15.8878 5.875 15.8878H6.89875Z" fill="white"/>
</svg>
