<svg width="24" height="24" viewBox="0 0 24 24" fill="none" xmlns="http://www.w3.org/2000/svg">
<path d="M8 21.2187V13.8187C8 13.2586 8 12.9786 8.109 12.7647C8.20487 12.5765 8.35785 12.4236 8.54601 12.3277C8.75993 12.2187 9.04 12.2187 9.6 12.2187H12.4C12.9601 12.2187 13.2401 12.2187 13.454 12.3277C13.6422 12.4236 13.7951 12.5765 13.891 12.7647C14 12.9786 14 13.2586 14 13.8187V21.2187M1 9.71875L10.04 2.93875C10.3843 2.68056 10.5564 2.55146 10.7454 2.50169C10.9123 2.45777 11.0877 2.45777 11.2546 2.5017C11.4436 2.55146 11.6157 2.68056 11.96 2.93875L21 9.71875M3 9.71875V18.0187C3 19.1388 3 19.6989 3.21799 20.1267C3.40974 20.503 3.7157 20.809 4.09202 21.0007C4.51985 21.2187 5.0799 21.2187 6.2 21.2187H15.8C16.9201 21.2187 17.4802 21.2187 17.908 21.0007C18.2843 20.809 18.5903 20.503 18.782 20.1267C19 19.6989 19 19.1388 19 18.0187V8.21875V9C18.3115 8.48361 19.3781 9.81828 19 9.71875C18.6663 9.6309 14.8936 9.90823 12.1495 9.71875C11.2959 9.6598 9.77989 9.71875 9.77989 9.71875H3Z" fill="#C22703"/>
<path d="M8 21.2187V13.8187C8 13.2586 8 12.9786 8.109 12.7647C8.20487 12.5765 8.35785 12.4236 8.54601 12.3277C8.75993 12.2187 9.04 12.2187 9.6 12.2187H12.4C12.9601 12.2187 13.2401 12.2187 13.454 12.3277C13.6422 12.4236 13.7951 12.5765 13.891 12.7647C14 12.9786 14 13.2586 14 13.8187V21.2187M1 9.71875L10.04 2.93875C10.3843 2.68056 10.5564 2.55146 10.7454 2.50169C10.9123 2.45777 11.0877 2.45777 11.2546 2.5017C11.4436 2.55146 11.6157 2.68056 11.96 2.93875L21 9.71875M3 9.71875V18.0187C3 19.1388 3 19.6989 3.21799 20.1267C3.40974 20.503 3.7157 20.809 4.09202 21.0007C4.51985 21.2187 5.0799 21.2187 6.2 21.2187H15.8C16.9201 21.2187 17.4802 21.2187 17.908 21.0007C18.2843 20.809 18.5903 20.503 18.782 20.1267C19 19.6989 19 19.1388 19 18.0187V8.21875V9C18.3115 8.48361 19.3781 9.81828 19 9.71875C18.6663 9.6309 14.8936 9.90823 12.1495 9.71875C11.2959 9.6598 9.77989 9.71875 9.77989 9.71875H3Z" stroke="#C22703" stroke-width="2" stroke-linecap="round" stroke-linejoin="round"/>
</svg>
