<svg width="21" height="20" viewBox="0 0 21 20" fill="none" xmlns="http://www.w3.org/2000/svg">
<path d="M13.0003 18.3338C12.7793 18.3338 12.5674 18.246 12.4111 18.0897C12.2548 17.9334 12.167 17.7215 12.167 17.5005V14.1671C12.167 14.03 12.2008 13.8949 12.2655 13.774C12.3302 13.653 12.4237 13.5499 12.5378 13.4738L15.0378 11.8071C15.1748 11.7158 15.3357 11.667 15.5003 11.667C15.6649 11.667 15.8259 11.7158 15.9628 11.8071L18.4628 13.4738C18.5769 13.5499 18.6705 13.653 18.7352 13.774C18.7998 13.8949 18.8337 14.03 18.8337 14.1671V17.5005C18.8337 17.7215 18.7459 17.9334 18.5896 18.0897C18.4333 18.246 18.2213 18.3338 18.0003 18.3338H13.0003Z" stroke="white" stroke-width="1.51515" stroke-linecap="round" stroke-linejoin="round"/>
<path d="M15.5003 8.33366C15.5003 6.56555 14.7979 4.86986 13.5477 3.61961C12.2975 2.36937 10.6018 1.66699 8.83366 1.66699C7.06555 1.66699 5.36986 2.36937 4.11961 3.61961C2.86937 4.86986 2.16699 6.56555 2.16699 8.33366C2.16699 12.4945 6.78283 16.8278 8.33283 18.1662C8.4773 18.2745 8.65307 18.333 8.83366 18.3328" stroke="white" stroke-width="1.51515" stroke-linecap="round" stroke-linejoin="round"/>
<path d="M15.5 18.334V15.834" stroke="white" stroke-width="1.51515" stroke-linecap="round" stroke-linejoin="round"/>
<path d="M8.83398 10.834C10.2147 10.834 11.334 9.7147 11.334 8.33398C11.334 6.95327 10.2147 5.83398 8.83398 5.83398C7.45327 5.83398 6.33398 6.95327 6.33398 8.33398C6.33398 9.7147 7.45327 10.834 8.83398 10.834Z" stroke="white" stroke-width="1.51515" stroke-linecap="round" stroke-linejoin="round"/>
</svg>
