<svg width="22" height="22" viewBox="0 0 22 22" fill="none" xmlns="http://www.w3.org/2000/svg">
<path d="M13.2497 18.4999C13.0508 18.4999 12.86 18.4209 12.7194 18.2802C12.5787 18.1395 12.4997 17.9488 12.4997 17.7499V14.7499C12.4997 14.6264 12.5301 14.5049 12.5883 14.396C12.6466 14.2872 12.7308 14.1944 12.8334 14.1259L15.0834 12.6259C15.2067 12.5436 15.3515 12.4998 15.4997 12.4998C15.6479 12.4998 15.7927 12.5436 15.9159 12.6259L18.1659 14.1259C18.2686 14.1944 18.3528 14.2872 18.411 14.396C18.4693 14.5049 18.4997 14.6264 18.4997 14.7499V17.7499C18.4997 17.9488 18.4207 18.1395 18.28 18.2802C18.1394 18.4209 17.9486 18.4999 17.7497 18.4999H13.2497Z" stroke="#CE4F32" stroke-linecap="round" stroke-linejoin="round"/>
<path d="M15.4997 9.5C15.4997 7.9087 14.8676 6.38258 13.7423 5.25736C12.6171 4.13214 11.091 3.5 9.4997 3.5C7.9084 3.5 6.38227 4.13214 5.25705 5.25736C4.13184 6.38258 3.49969 7.9087 3.49969 9.5C3.49969 13.2448 7.65395 17.1447 9.04895 18.3492C9.17897 18.4468 9.33716 18.4994 9.4997 18.4993" stroke="#CE4F32" stroke-linecap="round" stroke-linejoin="round"/>
<path d="M15.5 18.5V16.25" stroke="#CE4F32" stroke-linecap="round" stroke-linejoin="round"/>
<path d="M9.50031 11.75C10.7429 11.75 11.7503 10.7426 11.7503 9.5C11.7503 8.25736 10.7429 7.25 9.50031 7.25C8.25766 7.25 7.25031 8.25736 7.25031 9.5C7.25031 10.7426 8.25766 11.75 9.50031 11.75Z" stroke="#CE4F32" stroke-linecap="round" stroke-linejoin="round"/>
</svg>
