<svg width="25" height="24" viewBox="0 0 25 24" fill="none" xmlns="http://www.w3.org/2000/svg">
<path d="M12.3333 21.6501C12.0233 21.6501 11.7233 21.6101 11.4733 21.5201C7.65331 20.2101 1.58331 15.5601 1.58331 8.6901C1.58331 5.1901 4.41331 2.3501 7.89331 2.3501C9.58331 2.3501 11.1633 3.0101 12.3333 4.1901C13.5033 3.0101 15.0833 2.3501 16.7733 2.3501C20.2533 2.3501 23.0833 5.2001 23.0833 8.6901C23.0833 15.5701 17.0133 20.2101 13.1933 21.5201C12.9433 21.6101 12.6433 21.6501 12.3333 21.6501ZM7.89331 3.8501C5.24331 3.8501 3.08331 6.0201 3.08331 8.6901C3.08331 15.5201 9.65331 19.3201 11.9633 20.1101C12.1433 20.1701 12.5333 20.1701 12.7133 20.1101C15.0133 19.3201 21.5933 15.5301 21.5933 8.6901C21.5933 6.0201 19.4333 3.8501 16.7833 3.8501C15.2633 3.8501 13.8533 4.5601 12.9433 5.7901C12.6633 6.1701 12.0233 6.1701 11.7433 5.7901C10.8133 4.5501 9.41331 3.8501 7.89331 3.8501Z" fill="#292D32"/>
</svg>
