<svg width="25" height="24" viewBox="0 0 25 24" fill="none" xmlns="http://www.w3.org/2000/svg">
<mask id="mask0_955_1400" style="mask-type:alpha" maskUnits="userSpaceOnUse" x="1" y="1" width="23" height="22">
<path fill-rule="evenodd" clip-rule="evenodd" d="M13.1437 3.06C17.3137 3.52 20.6237 6.83 21.0837 11H22.1437C22.6937 11 23.1437 11.45 23.1437 12C23.1437 12.55 22.6937 13 22.1437 13H21.0837C20.6237 17.17 17.3137 20.48 13.1437 20.94V22C13.1437 22.55 12.6937 23 12.1437 23C11.5937 23 11.1437 22.55 11.1437 22V20.94C6.97368 20.48 3.66368 17.17 3.20368 13H2.14368C1.59368 13 1.14368 12.55 1.14368 12C1.14368 11.45 1.59368 11 2.14368 11H3.20368C3.66368 6.83 6.97368 3.52 11.1437 3.06V2C11.1437 1.45 11.5937 1 12.1437 1C12.6937 1 13.1437 1.45 13.1437 2V3.06ZM5.14368 12C5.14368 15.87 8.27368 19 12.1437 19C16.0137 19 19.1437 15.87 19.1437 12C19.1437 8.13 16.0137 5 12.1437 5C8.27368 5 5.14368 8.13 5.14368 12Z" fill="black"/>
</mask>
<g mask="url(#mask0_955_1400)">
<rect x="0.143677" width="24" height="24" fill="#00201C"/>
</g>
</svg>
