<svg width="20" height="20" viewBox="0 0 20 20" fill="none" xmlns="http://www.w3.org/2000/svg">
<path d="M9.21708 2.44336C9.49858 2.23907 9.63933 2.13693 9.79316 2.09746C9.929 2.06261 10.0715 2.06261 10.2073 2.09746C10.3612 2.13693 10.5019 2.23907 10.7834 2.44336L17.5488 7.3533C17.8308 7.55797 17.9719 7.66029 18.0572 7.79458C18.1324 7.91316 18.1766 8.04885 18.1853 8.18903C18.1953 8.34783 18.1414 8.5135 18.0337 8.84483L15.4501 16.7874C15.3424 17.1184 15.2886 17.2839 15.1872 17.4063C15.0977 17.5144 14.9825 17.5982 14.852 17.6498C14.7042 17.7083 14.5302 17.7083 14.1822 17.7083H5.81836C5.47031 17.7083 5.29628 17.7083 5.14851 17.6498C5.01803 17.5982 4.90271 17.5144 4.81324 17.4063C4.71191 17.2839 4.65807 17.1184 4.55041 16.7874L1.96684 8.84483C1.85905 8.5135 1.80516 8.34783 1.81514 8.18903C1.82395 8.04885 1.86805 7.91316 1.94335 7.79458C2.02861 7.66029 2.16962 7.55797 2.45163 7.3533L9.21708 2.44336Z" stroke="black" stroke-width="2" stroke-linecap="round" stroke-linejoin="round"/>
</svg>
